<?xml version="1.0" encoding="utf-8"?>
<!-- Generator: Adobe Illustrator 16.0.4, SVG Export Plug-In . SVG Version: 6.00 Build 0)  -->
<!DOCTYPE svg PUBLIC "-//W3C//DTD SVG 1.1//EN" "http://www.w3.org/Graphics/SVG/1.1/DTD/svg11.dtd">
<svg version="1.1" id="Layer_1" xmlns="http://www.w3.org/2000/svg" xmlns:xlink="http://www.w3.org/1999/xlink" x="0px" y="0px"
	 width="675px" height="112px" viewBox="0 0 675 112" enable-background="new 0 0 675 112" xml:space="preserve">
<g>
	<g>
		<path fill="#FFFFFF" d="M36.276,67.062c-2.001,1.09-4.301,1.625-6.898,1.625c-2.27,0-4.397-0.455-6.369-1.375
			c-1.978-0.92-3.699-2.203-5.156-3.855c-1.458-1.65-2.611-3.598-3.446-5.837c-0.842-2.25-1.262-4.724-1.262-7.433
			c0-2.649,0.423-5.106,1.262-7.382c0.835-2.272,2-4.231,3.492-5.884c1.482-1.646,3.243-2.936,5.271-3.856
			c2.031-0.918,4.23-1.375,6.615-1.375c2.374,0,4.473,0.401,6.292,1.215c1.808,0.81,3.332,1.974,4.581,3.489l9.742-7.953
			c-1.249-1.564-2.657-2.888-4.222-3.975c-1.569-1.078-3.209-1.951-4.915-2.597c-1.699-0.65-3.435-1.119-5.187-1.422
			c-1.761-0.292-3.456-0.445-5.073-0.445c-4.491,0-8.635,0.701-12.414,2.114c-3.793,1.405-7.066,3.419-9.821,6.042
			c-2.765,2.623-4.915,5.806-6.456,9.533c-1.539,3.735-2.31,7.901-2.31,12.497c0,4.598,0.771,8.765,2.31,12.496
			c1.541,3.733,3.692,6.916,6.459,9.539c2.757,2.623,6.028,4.633,9.818,6.043c3.781,1.409,7.927,2.112,12.414,2.112
			c3.944,0,7.785-0.815,11.522-2.435c3.73-1.629,6.817-4.139,9.251-7.551L41.223,62.52C39.928,64.471,38.281,65.982,36.276,67.062z
			 M107.118,21.466h-12.66v34.811c0,1.788-0.287,3.437-0.853,4.95c-0.567,1.516-1.367,2.826-2.391,3.937
			c-1.032,1.106-2.247,1.976-3.656,2.595c-1.405,0.622-2.95,0.934-4.628,0.934c-1.674,0-3.229-0.312-4.661-0.934
			c-1.434-0.621-2.663-1.488-3.694-2.595c-1.029-1.11-1.829-2.423-2.392-3.937c-0.565-1.513-0.852-3.166-0.852-4.95V21.466H58.672
			V56.76c0,3.414,0.517,6.551,1.542,9.417c1.029,2.865,2.557,5.357,4.581,7.464c2.035,2.113,4.561,3.762,7.593,4.952
			c3.031,1.193,6.55,1.785,10.544,1.785c3.952,0,7.444-0.592,10.473-1.785c3.027-1.188,5.565-2.838,7.592-4.952
			c2.024-2.105,3.554-4.599,4.583-7.464c1.024-2.866,1.542-6.007,1.542-9.417h-0.002V21.466H107.118z M151.345,58.953h-0.163
			l-13.231-37.49H118.81v57.455h12.653V34.851h0.164l14.525,44.067h9.651l15.101-44.067h0.163v44.067h12.661V21.466h-19.072
			L151.345,58.953z M243.85,21.466h-12.657v34.811c0,1.788-0.283,3.437-0.849,4.95c-0.574,1.516-1.368,2.826-2.399,3.937
			c-1.027,1.106-2.242,1.976-3.647,2.595c-1.408,0.622-2.956,0.934-4.629,0.934c-1.671,0-3.23-0.312-4.661-0.934
			c-1.439-0.621-2.667-1.488-3.692-2.595c-1.033-1.11-1.831-2.423-2.396-3.937c-0.567-1.513-0.854-3.166-0.854-4.95V21.466h-12.655
			V56.76c0,3.414,0.514,6.551,1.539,9.417c1.022,2.865,2.561,5.357,4.583,7.464c2.027,2.113,4.562,3.762,7.596,4.952
			c3.022,1.193,6.541,1.785,10.545,1.785c3.95,0,7.434-0.592,10.468-1.785c3.03-1.188,5.556-2.838,7.587-4.952
			c2.031-2.105,3.56-4.599,4.588-7.464c1.028-2.866,1.538-6.007,1.538-9.417h-0.005V21.466L243.85,21.466z M268.688,21.466h-12.66
			h-0.002v57.452h36.108V67.234h-23.446V21.466z M349.269,28.153c-2.759-2.621-6.033-4.634-9.82-6.044
			c-3.783-1.407-7.93-2.109-12.412-2.109c-4.494,0-8.633,0.701-12.42,2.114c-3.786,1.405-7.058,3.419-9.819,6.042
			c-2.76,2.623-4.912,5.805-6.453,9.534c-1.538,3.733-2.312,7.9-2.312,12.496c0,4.6,0.774,8.767,2.317,12.496
			c1.536,3.734,3.691,6.916,6.452,9.537c2.76,2.629,6.031,4.637,9.819,6.047c3.783,1.406,7.922,2.107,12.416,2.107
			c4.482,0,8.63-0.701,12.412-2.107c3.787-1.41,7.062-3.418,9.82-6.047c2.761-2.625,4.911-5.804,6.452-9.537
			c1.545-3.729,2.314-7.896,2.314-12.496c0-4.598-0.771-8.767-2.314-12.501C354.18,33.96,352.028,30.778,349.269,28.153z
			 M343.63,57.619c-0.836,2.24-2.043,4.184-3.614,5.837c-1.565,1.651-3.441,2.937-5.636,3.854c-2.192,0.92-4.64,1.375-7.344,1.375
			c-2.711,0-5.158-0.455-7.349-1.375c-2.19-0.922-4.072-2.203-5.639-3.854c-1.563-1.654-2.769-3.599-3.608-5.837
			c-0.844-2.251-1.261-4.725-1.261-7.433c0-2.651,0.417-5.106,1.261-7.382c0.84-2.27,2.037-4.228,3.608-5.884
			c1.565-1.646,3.448-2.932,5.639-3.854c2.19-0.921,4.639-1.378,7.349-1.378c2.704,0,5.151,0.457,7.344,1.378
			c2.193,0.922,4.069,2.208,5.636,3.854c1.571,1.651,2.778,3.614,3.614,5.884c0.84,2.275,1.262,4.732,1.262,7.382
			C344.892,52.895,344.465,55.369,343.63,57.619z M399.827,67.062c-2.004,1.088-4.304,1.625-6.905,1.625
			c-2.267,0-4.393-0.459-6.366-1.381c-1.977-0.916-3.693-2.203-5.157-3.855c-1.457-1.648-2.605-3.592-3.445-5.837
			c-0.839-2.245-1.263-4.722-1.263-7.428c0-2.649,0.427-5.111,1.263-7.382c0.84-2.272,1.998-4.231,3.49-5.884
			c1.486-1.646,3.244-2.936,5.275-3.856c2.031-0.918,4.23-1.375,6.617-1.375c2.374,0,4.472,0.401,6.286,1.215
			c1.81,0.81,3.336,1.974,4.583,3.489l9.734-7.953c-1.242-1.564-2.653-2.888-4.216-3.975c-1.57-1.078-3.206-1.951-4.911-2.597
			c-1.703-0.65-3.438-1.119-5.191-1.422c-1.759-0.292-3.456-0.445-5.071-0.445c-4.496,0-8.637,0.701-12.415,2.109
			c-3.792,1.407-7.061,3.424-9.824,6.044c-2.759,2.625-4.914,5.805-6.448,9.533c-1.541,3.732-2.313,7.901-2.313,12.499
			c0,4.596,0.772,8.765,2.313,12.496c1.534,3.733,3.689,6.916,6.448,9.534c2.766,2.628,6.033,4.638,9.824,6.048
			c3.782,1.409,7.919,2.108,12.419,2.108c3.945,0,7.778-0.812,11.514-2.435c3.738-1.625,6.818-4.14,9.254-7.547l-10.553-7.873
			C403.474,64.468,401.828,65.982,399.827,67.062z M422.06,78.918h12.654V21.466H422.06V78.918z M526.173,21.466l-12.899,21.499
			L501.1,21.466h-14.688h-1.059H440.97v11.195h16.385v46.257h12.665V32.661h16.393V23.08l20.53,31.328v24.51h12.654v-24.51
			l21.583-32.945h-15.007V21.466z"/>
	</g>
</g>
<g>
	<g>
		<path fill="#FFFFFF" d="M569.256,78.918h12.663V21.466h-12.663V78.918z M627.896,44.144c-1.979-1.815-4.307-3.21-6.979-4.18
			c-2.686-0.977-5.539-1.46-8.562-1.46c-3.038,0-5.892,0.483-8.562,1.46c-2.682,0.97-5.012,2.365-6.984,4.18
			c-1.979,1.811-3.523,3.991-4.666,6.532c-1.136,2.539-1.702,5.385-1.702,8.52c0,3.144,0.566,5.979,1.702,8.521
			c1.143,2.55,2.688,4.72,4.666,6.529c1.974,1.815,4.304,3.208,6.984,4.183c2.678,0.971,5.523,1.461,8.562,1.461
			c3.023,0,5.878-0.488,8.562-1.461c2.672-0.977,5-2.363,6.979-4.183c1.973-1.806,3.524-3.979,4.662-6.529
			c1.139-2.542,1.706-5.384,1.706-8.521c0-3.133-0.567-5.979-1.706-8.52C631.422,48.134,629.869,45.955,627.896,44.144z
			 M619.536,66.416c-1.712,1.846-4.101,2.762-7.186,2.762c-3.087,0-5.478-0.917-7.184-2.762c-1.704-1.836-2.554-4.243-2.554-7.221
			c0-2.973,0.852-5.382,2.554-7.221c1.706-1.833,4.094-2.759,7.184-2.759c3.077,0,5.474,0.925,7.186,2.759
			c1.696,1.836,2.549,4.248,2.549,7.221C622.087,62.172,621.232,64.58,619.536,66.416z M629.554,21.466v11.195h16.396v46.257h12.657
			V32.661H675V21.463h-45.446V21.466z"/>
	</g>
</g>
</svg>
